<svg width="220" height="55" viewBox="0 0 220 55" fill="none" xmlns="http://www.w3.org/2000/svg">
<rect width="220" height="55" fill="#D7B399"/>
<path d="M36.888 34V22.8H41.544C42.728 22.8 43.656 23.0453 44.328 23.536C45.0107 24.016 45.352 24.7253 45.352 25.664C45.352 26.592 45.0267 27.296 44.376 27.776C43.7253 28.2453 42.872 28.48 41.816 28.48L42.088 28.08C43.336 28.08 44.2853 28.3253 44.936 28.816C45.5867 29.3067 45.912 30.0267 45.912 30.976C45.912 31.936 45.5707 32.6827 44.888 33.216C44.216 33.7387 43.2027 34 41.848 34H36.888ZM38.056 33.056H41.848C42.7973 33.056 43.5173 32.88 44.008 32.528C44.4987 32.176 44.744 31.632 44.744 30.896C44.744 30.1707 44.4987 29.6373 44.008 29.296C43.5173 28.9547 42.7973 28.784 41.848 28.784H38.056V33.056ZM38.056 27.872H41.48C42.344 27.872 43.0053 27.7013 43.464 27.36C43.9333 27.008 44.168 26.4907 44.168 25.808C44.168 25.1253 43.9333 24.6133 43.464 24.272C43.0053 23.92 42.344 23.744 41.48 23.744H38.056V27.872ZM54.2484 34.096C53.4057 34.096 52.627 33.9573 51.9124 33.68C51.1977 33.392 50.579 32.992 50.0564 32.48C49.5337 31.968 49.123 31.3653 48.8244 30.672C48.5364 29.9787 48.3924 29.2213 48.3924 28.4C48.3924 27.5787 48.5364 26.8213 48.8244 26.128C49.123 25.4347 49.5337 24.832 50.0564 24.32C50.5897 23.808 51.2137 23.4133 51.9284 23.136C52.643 22.848 53.4217 22.704 54.2644 22.704C55.075 22.704 55.8377 22.8427 56.5524 23.12C57.267 23.3867 57.8697 23.792 58.3604 24.336L57.6084 25.088C57.1497 24.6187 56.643 24.2827 56.0884 24.08C55.5337 23.8667 54.9364 23.76 54.2964 23.76C53.6244 23.76 53.0004 23.8773 52.4244 24.112C51.8484 24.336 51.347 24.6613 50.9204 25.088C50.4937 25.504 50.1577 25.9947 49.9124 26.56C49.6777 27.1147 49.5604 27.728 49.5604 28.4C49.5604 29.072 49.6777 29.6907 49.9124 30.256C50.1577 30.8107 50.4937 31.3013 50.9204 31.728C51.347 32.144 51.8484 32.4693 52.4244 32.704C53.0004 32.928 53.6244 33.04 54.2964 33.04C54.9364 33.04 55.5337 32.9333 56.0884 32.72C56.643 32.5067 57.1497 32.1653 57.6084 31.696L58.3604 32.448C57.8697 32.992 57.267 33.4027 56.5524 33.68C55.8377 33.9573 55.0697 34.096 54.2484 34.096ZM62.3415 27.808H68.2615V28.816H62.3415V27.808ZM62.4695 32.976H69.2055V34H61.2855V22.8H68.9655V23.824H62.4695V32.976ZM76.9799 34V22.8H77.9559L83.0759 31.536H82.5639L87.6359 22.8H88.6119V34H87.4759V24.576H87.7479L83.0759 32.576H82.5159L77.8119 24.576H78.1159V34H76.9799ZM97.7781 34.096C96.9355 34.096 96.1515 33.9573 95.4261 33.68C94.7115 33.392 94.0875 32.992 93.5541 32.48C93.0315 31.9573 92.6208 31.3547 92.3221 30.672C92.0341 29.9787 91.8901 29.2213 91.8901 28.4C91.8901 27.5787 92.0341 26.8267 92.3221 26.144C92.6208 25.4507 93.0315 24.848 93.5541 24.336C94.0875 23.8133 94.7115 23.4133 95.4261 23.136C96.1408 22.848 96.9248 22.704 97.7781 22.704C98.6208 22.704 99.3995 22.848 100.114 23.136C100.829 23.4133 101.447 23.808 101.97 24.32C102.503 24.832 102.914 25.4347 103.202 26.128C103.501 26.8213 103.65 27.5787 103.65 28.4C103.65 29.2213 103.501 29.9787 103.202 30.672C102.914 31.3653 102.503 31.968 101.97 32.48C101.447 32.992 100.829 33.392 100.114 33.68C99.3995 33.9573 98.6208 34.096 97.7781 34.096ZM97.7781 33.04C98.4501 33.04 99.0688 32.928 99.6341 32.704C100.21 32.4693 100.706 32.144 101.122 31.728C101.549 31.3013 101.879 30.8107 102.114 30.256C102.349 29.6907 102.466 29.072 102.466 28.4C102.466 27.728 102.349 27.1147 102.114 26.56C101.879 25.9947 101.549 25.504 101.122 25.088C100.706 24.6613 100.21 24.336 99.6341 24.112C99.0688 23.8773 98.4501 23.76 97.7781 23.76C97.1061 23.76 96.4821 23.8773 95.9061 24.112C95.3301 24.336 94.8288 24.6613 94.4021 25.088C93.9861 25.504 93.6555 25.9947 93.4101 26.56C93.1755 27.1147 93.0581 27.728 93.0581 28.4C93.0581 29.0613 93.1755 29.6747 93.4101 30.24C93.6555 30.8053 93.9861 31.3013 94.4021 31.728C94.8288 32.144 95.3301 32.4693 95.9061 32.704C96.4821 32.928 97.1061 33.04 97.7781 33.04ZM114.083 33.44V23.824H108.723L108.627 26.544C108.595 27.3867 108.542 28.1973 108.467 28.976C108.403 29.744 108.296 30.4373 108.147 31.056C108.008 31.664 107.816 32.16 107.571 32.544C107.336 32.928 107.027 33.152 106.643 33.216L105.347 32.976C105.774 32.9973 106.126 32.8427 106.403 32.512C106.691 32.1813 106.91 31.7173 107.059 31.12C107.219 30.5227 107.336 29.824 107.411 29.024C107.486 28.224 107.539 27.36 107.571 26.432L107.699 22.8H115.251V33.44H114.083ZM104.931 36.512L104.947 32.976H116.931V36.512H115.827V34H106.051L106.035 36.512H104.931ZM120.882 27.808H126.802V28.816H120.882V27.808ZM121.01 32.976H127.746V34H119.826V22.8H127.506V23.824H121.01V32.976ZM130.037 34.096C129.888 34.096 129.744 34.0853 129.605 34.064C129.466 34.0533 129.312 34.0267 129.141 33.984L129.237 32.928C129.418 32.9707 129.594 32.992 129.765 32.992C130.245 32.992 130.629 32.8053 130.917 32.432C131.216 32.048 131.44 31.4613 131.589 30.672C131.738 29.872 131.834 28.848 131.877 27.6L132.037 22.8H139.637V34H138.469V23.504L138.773 23.824H132.789L133.077 23.488L132.933 27.568C132.89 28.688 132.81 29.6587 132.693 30.48C132.576 31.2907 132.405 31.968 132.181 32.512C131.957 33.0453 131.669 33.4453 131.317 33.712C130.965 33.968 130.538 34.096 130.037 34.096ZM143.895 34V22.8H145.063V32.08L152.232 22.8H153.304V34H152.135V24.736L144.967 34H143.895Z" fill="white"/>
<path d="M185.354 28.3536C185.549 28.1583 185.549 27.8417 185.354 27.6464L182.172 24.4645C181.976 24.2692 181.66 24.2692 181.464 24.4645C181.269 24.6597 181.269 24.9763 181.464 25.1716L184.293 28L181.464 30.8284C181.269 31.0237 181.269 31.3403 181.464 31.5355C181.66 31.7308 181.976 31.7308 182.172 31.5355L185.354 28.3536ZM165 28.5L185 28.5V27.5L165 27.5V28.5Z" fill="white"/>
</svg>
