<svg xmlns="http://www.w3.org/2000/svg" xmlns:xlink="http://www.w3.org/1999/xlink" viewBox="0,0,256,256" width="50px" height="50px" fill-rule="nonzero"><g fill="#d7b399" fill-rule="nonzero" stroke="none" stroke-width="1" stroke-linecap="butt" stroke-linejoin="miter" stroke-miterlimit="10" stroke-dasharray="" stroke-dashoffset="0" font-family="none" font-weight="none" font-size="none" text-anchor="none" style="mix-blend-mode: normal"><g transform="scale(5.12,5.12)"><path d="M9,4c-2.76,0 -5,2.24 -5,5v32c0,2.76 2.24,5 5,5h32c2.76,0 5,-2.24 5,-5v-32c0,-2.76 -2.24,-5 -5,-5zM25,9c4.42,0 8,3.58 8,8c0,4.42 -3.58,8 -8,8c-4.42,0 -8,-3.58 -8,-8c0,-4.42 3.58,-8 8,-8zM25,13c-2.20914,0 -4,1.79086 -4,4c0,2.20914 1.79086,4 4,4c2.20914,0 4,-1.79086 4,-4c0,-2.20914 -1.79086,-4 -4,-4zM33,26.49023c0.63,0 1.25062,0.29937 1.64063,0.85938c0.63,0.9 0.41,2.15125 -0.5,2.78125c-1.5,1.05 -3.15063,1.80906 -4.89062,2.28906l5.16016,5.16992c0.79,0.78 0.79,2.04031 0,2.82031c-0.39,0.39 -0.90016,0.58984 -1.41016,0.58984c-0.51,0 -1.02016,-0.19984 -1.41016,-0.58984l-6.58984,-6.58008l-6.58984,6.58008c-0.39,0.39 -0.90016,0.58984 -1.41016,0.58984c-0.51,0 -1.02016,-0.19984 -1.41016,-0.58984c-0.79,-0.78 -0.79,-2.04031 0,-2.82031l5.16016,-5.16992c-1.73,-0.48 -3.38086,-1.2293 -4.88086,-2.2793c-0.9,-0.63 -1.13,-1.87125 -0.5,-2.78125c0.39,-0.56 1.01039,-0.85937 1.65039,-0.85937c0.39,0 0.79062,0.11938 1.14063,0.35938c2.01,1.4 4.37984,2.14063 6.83984,2.14063c2.47,0 4.83938,-0.74039 6.85938,-2.15039c0.34,-0.24 0.74063,-0.35937 1.14063,-0.35937z"></path></g></g></svg>